<svg xmlns="http://www.w3.org/2000/svg" xmlns:xlink="http://www.w3.org/1999/xlink" width="500" zoomAndPan="magnify" viewBox="0 0 375 374.999991" height="500" preserveAspectRatio="xMidYMid meet" version="1.0"><defs><clipPath id="3708c8c1b5"><path d="M 0 0 L 374.878906 0 L 374.878906 375 L 0 375 Z M 0 0 " clip-rule="nonzero"/></clipPath></defs><g clip-path="url(#3708c8c1b5)"><path fill="#ffc44d" d="M 9.5 -0.882812 C 5.703125 -0.882812 2.089844 0.746094 -0.425781 3.59375 C -2.9375 6.441406 -4.105469 10.230469 -3.636719 13.996094 L 31.667969 296.414062 C 32.214844 300.808594 34.921875 304.636719 38.882812 306.613281 L 180.089844 377.21875 C 183.816406 379.082031 188.207031 379.082031 191.933594 377.21875 L 333.140625 306.613281 C 337.101562 304.636719 339.808594 300.808594 340.355469 296.414062 L 375.660156 13.996094 C 376.128906 10.230469 374.960938 6.441406 372.449219 3.59375 C 369.933594 0.746094 366.320312 -0.882812 362.523438 -0.882812 Z M 9.5 -0.882812 " fill-opacity="1" fill-rule="nonzero"/></g><path fill="#e5b045" d="M 186.011719 -0.882812 L 186.011719 378.617188 C 183.984375 378.617188 181.957031 378.152344 180.089844 377.21875 L 38.882812 306.613281 C 34.921875 304.636719 32.214844 300.808594 31.667969 296.414062 L -3.636719 13.996094 C -4.105469 10.230469 -2.9375 6.441406 -0.425781 3.59375 C 2.089844 0.746094 5.703125 -0.882812 9.5 -0.882812 Z M 186.011719 -0.882812 " fill-opacity="1" fill-rule="evenodd"/><path fill="#eceff1" d="M 70.328125 56.382812 C 72.835938 53.636719 76.386719 52.070312 80.105469 52.070312 L 291.917969 52.070312 C 299.230469 52.070312 305.15625 57.996094 305.15625 65.308594 C 305.15625 72.621094 299.230469 78.546875 291.917969 78.546875 L 94.601562 78.546875 L 101.019531 149.152344 L 291.917969 149.152344 C 295.84375 149.152344 299.566406 150.894531 302.082031 153.90625 C 304.597656 156.921875 305.644531 160.898438 304.941406 164.757812 L 287.292969 261.839844 C 286.609375 265.589844 284.347656 268.863281 281.078125 270.824219 L 192.824219 323.777344 C 188.632812 326.292969 183.390625 326.292969 179.199219 323.777344 L 90.945312 270.824219 C 87.320312 268.652344 84.953125 264.878906 84.570312 260.671875 L 66.921875 66.507812 C 66.585938 62.804688 67.820312 59.128906 70.328125 56.382812 Z M 103.425781 175.628906 L 110.332031 251.578125 L 186.011719 296.988281 L 262.316406 251.203125 L 276.054688 175.628906 Z M 103.425781 175.628906 " fill-opacity="1" fill-rule="evenodd"/><path fill="#cfd8dc" d="M 186.011719 78.546875 L 94.601562 78.546875 L 101.019531 149.152344 L 186.011719 149.152344 L 186.011719 175.628906 L 103.425781 175.628906 L 110.332031 251.578125 L 186.011719 296.988281 L 186.011719 325.664062 C 183.652344 325.664062 181.296875 325.035156 179.199219 323.777344 L 90.945312 270.824219 C 87.320312 268.652344 84.953125 264.878906 84.570312 260.671875 L 66.921875 66.507812 C 66.585938 62.804688 67.820312 59.128906 70.328125 56.382812 C 72.835938 53.636719 76.386719 52.070312 80.105469 52.070312 L 186.011719 52.070312 Z M 186.011719 78.546875 " fill-opacity="1" fill-rule="evenodd"/><path fill="#ffc44d" d="M 13.953125 -0.871094 C 10.203125 -0.871094 6.628906 0.738281 4.148438 3.550781 C 1.664062 6.363281 0.507812 10.109375 0.972656 13.832031 L 35.855469 292.902344 C 36.398438 297.242188 39.074219 301.023438 42.988281 302.980469 L 182.523438 372.746094 C 186.203125 374.589844 190.539062 374.589844 194.222656 372.746094 L 333.757812 302.980469 C 337.667969 301.023438 340.34375 297.242188 340.886719 292.902344 L 375.769531 13.832031 C 376.238281 10.109375 375.082031 6.363281 372.597656 3.550781 C 370.113281 0.738281 366.542969 -0.871094 362.789062 -0.871094 Z M 13.953125 -0.871094 " fill-opacity="1" fill-rule="nonzero"/><path fill="#e5b045" d="M 188.371094 -0.871094 L 188.371094 374.128906 C 186.367188 374.128906 184.363281 373.667969 182.523438 372.746094 L 42.988281 302.980469 C 39.074219 301.023438 36.398438 297.242188 35.855469 292.902344 L 0.972656 13.832031 C 0.507812 10.109375 1.664062 6.363281 4.148438 3.550781 C 6.628906 0.738281 10.203125 -0.871094 13.953125 -0.871094 Z M 188.371094 -0.871094 " fill-opacity="1" fill-rule="evenodd"/><path fill="#eceff1" d="M 74.0625 55.714844 C 76.539062 53 80.046875 51.453125 83.722656 51.453125 L 293.023438 51.453125 C 300.246094 51.453125 306.105469 57.308594 306.105469 64.535156 C 306.105469 71.757812 300.246094 77.617188 293.023438 77.617188 L 98.046875 77.617188 L 104.386719 147.382812 L 293.023438 147.382812 C 296.902344 147.382812 300.582031 149.105469 303.066406 152.082031 C 305.550781 155.0625 306.585938 158.988281 305.894531 162.804688 L 288.453125 258.734375 C 287.777344 262.441406 285.539062 265.675781 282.3125 267.613281 L 195.101562 319.9375 C 190.960938 322.421875 185.785156 322.421875 181.640625 319.9375 L 94.433594 267.613281 C 90.851562 265.464844 88.511719 261.738281 88.136719 257.578125 L 70.691406 65.71875 C 70.359375 62.058594 71.582031 58.425781 74.0625 55.714844 Z M 106.765625 173.546875 L 113.589844 248.59375 L 188.371094 293.464844 L 263.773438 248.226562 L 277.347656 173.546875 Z M 106.765625 173.546875 " fill-opacity="1" fill-rule="evenodd"/><path fill="#cfd8dc" d="M 188.371094 77.617188 L 98.046875 77.617188 L 104.386719 147.382812 L 188.371094 147.382812 L 188.371094 173.546875 L 106.765625 173.546875 L 113.589844 248.59375 L 188.371094 293.464844 L 188.371094 321.800781 C 186.042969 321.800781 183.714844 321.179688 181.640625 319.9375 L 94.433594 267.613281 C 90.851562 265.464844 88.511719 261.738281 88.136719 257.578125 L 70.691406 65.71875 C 70.359375 62.058594 71.582031 58.425781 74.0625 55.714844 C 76.539062 53 80.046875 51.453125 83.722656 51.453125 L 188.371094 51.453125 Z M 188.371094 77.617188 " fill-opacity="1" fill-rule="evenodd"/></svg>