<svg xmlns="http://www.w3.org/2000/svg" xmlns:xlink="http://www.w3.org/1999/xlink" width="500" zoomAndPan="magnify" viewBox="0 0 375 374.999991" height="500" preserveAspectRatio="xMidYMid meet" version="1.0"><defs><g/><clipPath id="83fa652015"><path d="M 125.488281 93.261719 L 182.398438 93.261719 L 182.398438 231.96875 L 125.488281 231.96875 Z M 125.488281 93.261719 " clip-rule="nonzero"/></clipPath><clipPath id="5307d843ee"><path d="M 77.457031 114.578125 L 173.523438 114.578125 L 173.523438 210.648438 L 77.457031 210.648438 Z M 77.457031 114.578125 " clip-rule="nonzero"/></clipPath><clipPath id="2accaf22d1"><path d="M 125.488281 114.578125 C 98.960938 114.578125 77.457031 136.085938 77.457031 162.613281 C 77.457031 189.140625 98.960938 210.648438 125.488281 210.648438 C 152.015625 210.648438 173.523438 189.140625 173.523438 162.613281 C 173.523438 136.085938 152.015625 114.578125 125.488281 114.578125 Z M 125.488281 114.578125 " clip-rule="nonzero"/></clipPath></defs><g clip-path="url(#83fa652015)"><path fill="#ff6300" d="M 125.488281 93.261719 L 182.398438 93.261719 L 182.398438 231.976562 L 125.488281 231.976562 Z M 125.488281 93.261719 " fill-opacity="1" fill-rule="nonzero"/></g><g clip-path="url(#5307d843ee)"><g clip-path="url(#2accaf22d1)"><path fill="#ff6300" d="M 77.457031 114.578125 L 173.523438 114.578125 L 173.523438 210.648438 L 77.457031 210.648438 Z M 77.457031 114.578125 " fill-opacity="1" fill-rule="nonzero"/></g></g><g fill="#ff6300" fill-opacity="1"><g transform="translate(173.424528, 232.983454)"><g><path d="M 42.859375 0 L 13.46875 0 L 13.46875 -141.28125 L 88.5625 -141.28125 L 88.5625 -114.734375 L 42.859375 -114.734375 L 42.859375 -88.375 L 95.953125 -88.375 L 95.953125 -62.015625 L 42.859375 -62.015625 Z M 42.859375 0 "/></g></g></g><g fill="#ff6300" fill-opacity="1"><g transform="translate(54.85438, 262.069339)"><g><path d="M 7.328125 -15.15625 L 7.328125 -16.53125 C 8.015625 -16.519531 8.695312 -16.398438 9.375 -16.171875 C 10.0625 -15.953125 10.410156 -15.84375 10.421875 -15.84375 C 10.597656 -15.84375 10.773438 -15.957031 10.953125 -16.1875 C 11.140625 -16.425781 11.34375 -16.546875 11.5625 -16.546875 C 11.8125 -16.546875 11.984375 -16.476562 12.078125 -16.34375 C 12.179688 -16.21875 12.234375 -15.992188 12.234375 -15.671875 L 12.234375 -11.875 C 12.234375 -11.445312 12.179688 -11.160156 12.078125 -11.015625 C 11.972656 -10.867188 11.796875 -10.796875 11.546875 -10.796875 C 11.179688 -10.796875 10.90625 -11.117188 10.71875 -11.765625 C 10.632812 -12.054688 10.554688 -12.289062 10.484375 -12.46875 C 10.191406 -13.195312 9.773438 -13.789062 9.234375 -14.25 C 8.691406 -14.71875 8.054688 -15.019531 7.328125 -15.15625 Z M 6.875 0.328125 L 6.875 -1.21875 C 7.5625 -1.269531 8.070312 -1.425781 8.40625 -1.6875 C 8.738281 -1.957031 8.90625 -2.351562 8.90625 -2.875 C 8.90625 -3.738281 7.945312 -4.601562 6.03125 -5.46875 L 5.859375 -5.546875 C 3.984375 -6.378906 2.707031 -7.203125 2.03125 -8.015625 C 1.363281 -8.835938 1.03125 -9.851562 1.03125 -11.0625 C 1.03125 -12.675781 1.53125 -13.992188 2.53125 -15.015625 C 3.539062 -16.035156 4.847656 -16.546875 6.453125 -16.546875 L 6.65625 -16.546875 L 6.65625 -15.109375 C 6.195312 -15.023438 5.828125 -14.820312 5.546875 -14.5 C 5.265625 -14.1875 5.125 -13.816406 5.125 -13.390625 C 5.125 -12.566406 6.125 -11.757812 8.125 -10.96875 L 8.46875 -10.84375 C 10.101562 -10.175781 11.273438 -9.398438 11.984375 -8.515625 C 12.703125 -7.628906 13.0625 -6.515625 13.0625 -5.171875 C 13.0625 -3.523438 12.5 -2.195312 11.375 -1.1875 C 10.25 -0.175781 8.75 0.328125 6.875 0.328125 Z M 6.1875 -1.1875 L 6.1875 0.296875 C 5.539062 0.285156 4.867188 0.171875 4.171875 -0.046875 C 3.472656 -0.265625 3.078125 -0.375 2.984375 -0.375 C 2.796875 -0.375 2.617188 -0.257812 2.453125 -0.03125 C 2.285156 0.1875 2.085938 0.296875 1.859375 0.296875 C 1.617188 0.296875 1.429688 0.210938 1.296875 0.046875 C 1.160156 -0.117188 1.09375 -0.351562 1.09375 -0.65625 L 1.09375 -4.890625 C 1.09375 -5.347656 1.144531 -5.660156 1.25 -5.828125 C 1.363281 -6.003906 1.5625 -6.09375 1.84375 -6.09375 C 2.21875 -6.09375 2.492188 -5.742188 2.671875 -5.046875 C 2.765625 -4.703125 2.847656 -4.429688 2.921875 -4.234375 C 3.210938 -3.460938 3.644531 -2.804688 4.21875 -2.265625 C 4.800781 -1.734375 5.457031 -1.375 6.1875 -1.1875 Z M 6.1875 -1.1875 "/></g></g><g transform="translate(68.791408, 262.069339)"><g><path d="M 9.53125 -3.21875 L 9.53125 -13.015625 C 9.53125 -13.847656 9.445312 -14.398438 9.28125 -14.671875 C 9.125 -14.953125 8.835938 -15.113281 8.421875 -15.15625 L 8.421875 -16.546875 C 10.609375 -16.359375 12.304688 -15.523438 13.515625 -14.046875 C 14.734375 -12.578125 15.34375 -10.601562 15.34375 -8.125 C 15.34375 -5.632812 14.734375 -3.648438 13.515625 -2.171875 C 12.304688 -0.703125 10.609375 0.117188 8.421875 0.296875 L 8.421875 -1.078125 C 8.835938 -1.117188 9.125 -1.28125 9.28125 -1.5625 C 9.445312 -1.84375 9.53125 -2.394531 9.53125 -3.21875 Z M 6.609375 -3.21875 C 6.609375 -2.40625 6.6875 -1.851562 6.84375 -1.5625 C 7.007812 -1.28125 7.304688 -1.117188 7.734375 -1.078125 L 7.734375 0.296875 C 5.546875 0.140625 3.84375 -0.675781 2.625 -2.15625 C 1.414062 -3.644531 0.8125 -5.632812 0.8125 -8.125 C 0.8125 -10.601562 1.414062 -12.578125 2.625 -14.046875 C 3.84375 -15.523438 5.546875 -16.359375 7.734375 -16.546875 L 7.734375 -15.15625 C 7.304688 -15.113281 7.007812 -14.945312 6.84375 -14.65625 C 6.6875 -14.375 6.609375 -13.828125 6.609375 -13.015625 Z M 6.609375 -3.21875 "/></g></g><g transform="translate(84.918381, 262.069339)"><g><path d="M 8.046875 -7.609375 L 8.046875 -9.109375 C 8.390625 -9.203125 8.644531 -9.320312 8.8125 -9.46875 C 8.988281 -9.613281 9.132812 -9.816406 9.25 -10.078125 C 9.320312 -10.265625 9.414062 -10.503906 9.53125 -10.796875 C 9.71875 -11.328125 9.96875 -11.59375 10.28125 -11.59375 C 10.507812 -11.59375 10.671875 -11.5 10.765625 -11.3125 C 10.867188 -11.132812 10.921875 -10.816406 10.921875 -10.359375 L 10.921875 -6.28125 C 10.921875 -5.863281 10.867188 -5.566406 10.765625 -5.390625 C 10.671875 -5.210938 10.507812 -5.125 10.28125 -5.125 C 9.957031 -5.125 9.707031 -5.390625 9.53125 -5.921875 C 9.414062 -6.203125 9.320312 -6.4375 9.25 -6.625 C 9.132812 -6.882812 8.988281 -7.085938 8.8125 -7.234375 C 8.632812 -7.390625 8.378906 -7.515625 8.046875 -7.609375 Z M 7.28125 -2.703125 L 7.28125 -2.234375 C 7.28125 -1.878906 7.507812 -1.617188 7.96875 -1.453125 C 7.988281 -1.441406 8.007812 -1.429688 8.03125 -1.421875 C 8.3125 -1.328125 8.503906 -1.222656 8.609375 -1.109375 C 8.710938 -0.992188 8.765625 -0.835938 8.765625 -0.640625 C 8.765625 -0.410156 8.679688 -0.242188 8.515625 -0.140625 C 8.347656 -0.046875 8.039062 0 7.59375 0 L 1.609375 0 C 1.253906 0 1.003906 -0.046875 0.859375 -0.140625 C 0.710938 -0.242188 0.640625 -0.414062 0.640625 -0.65625 C 0.640625 -0.976562 0.832031 -1.226562 1.21875 -1.40625 C 1.3125 -1.4375 1.378906 -1.46875 1.421875 -1.5 C 1.597656 -1.582031 1.710938 -1.679688 1.765625 -1.796875 C 1.828125 -1.921875 1.859375 -2.15625 1.859375 -2.5 L 1.859375 -13.734375 C 1.859375 -14.085938 1.828125 -14.320312 1.765625 -14.4375 C 1.710938 -14.550781 1.597656 -14.65625 1.421875 -14.75 C 1.378906 -14.769531 1.3125 -14.796875 1.21875 -14.828125 C 0.832031 -15.003906 0.640625 -15.25 0.640625 -15.5625 C 0.640625 -15.8125 0.710938 -15.984375 0.859375 -16.078125 C 1.003906 -16.179688 1.253906 -16.234375 1.609375 -16.234375 L 7.28125 -16.234375 Z M 8.046875 -16.234375 L 13 -16.234375 L 13 -11.9375 C 13 -11.707031 12.9375 -11.523438 12.8125 -11.390625 C 12.695312 -11.265625 12.546875 -11.203125 12.359375 -11.203125 C 12.015625 -11.203125 11.722656 -11.515625 11.484375 -12.140625 C 11.316406 -12.554688 11.171875 -12.863281 11.046875 -13.0625 C 10.722656 -13.539062 10.300781 -13.925781 9.78125 -14.21875 C 9.257812 -14.507812 8.679688 -14.6875 8.046875 -14.75 Z M 8.046875 -16.234375 "/></g></g><g transform="translate(99.181093, 262.069339)"><g><path d="M 10.421875 -16.234375 L 10.421875 -2.234375 C 10.421875 -1.878906 10.644531 -1.613281 11.09375 -1.4375 L 11.125 -1.421875 C 11.414062 -1.328125 11.613281 -1.222656 11.71875 -1.109375 C 11.820312 -0.992188 11.875 -0.835938 11.875 -0.640625 C 11.875 -0.398438 11.789062 -0.234375 11.625 -0.140625 C 11.46875 -0.046875 11.164062 0 10.71875 0 L 4.671875 0 C 4.222656 0 3.914062 -0.046875 3.75 -0.140625 C 3.59375 -0.234375 3.515625 -0.398438 3.515625 -0.640625 C 3.515625 -0.984375 3.773438 -1.253906 4.296875 -1.453125 C 4.367188 -1.484375 4.421875 -1.503906 4.453125 -1.515625 C 4.660156 -1.597656 4.796875 -1.6875 4.859375 -1.78125 C 4.929688 -1.875 4.96875 -2.078125 4.96875 -2.390625 L 4.96875 -16.234375 Z M 14.375 -16.234375 L 14.375 -11.390625 C 14.375 -11.128906 14.296875 -10.921875 14.140625 -10.765625 C 13.992188 -10.609375 13.800781 -10.53125 13.5625 -10.53125 C 13.082031 -10.53125 12.789062 -10.894531 12.6875 -11.625 C 12.65625 -11.84375 12.625 -12.007812 12.59375 -12.125 C 12.4375 -12.820312 12.234375 -13.382812 11.984375 -13.8125 C 11.734375 -14.25 11.441406 -14.546875 11.109375 -14.703125 L 11.109375 -16.234375 Z M 0.8125 -16.234375 L 4.0625 -16.234375 L 4.0625 -14.703125 C 3.738281 -14.546875 3.445312 -14.25 3.1875 -13.8125 C 2.9375 -13.382812 2.734375 -12.820312 2.578125 -12.125 C 2.546875 -12.007812 2.519531 -11.84375 2.5 -11.625 C 2.382812 -10.894531 2.085938 -10.53125 1.609375 -10.53125 C 1.316406 -10.53125 1.109375 -10.613281 0.984375 -10.78125 C 0.867188 -10.957031 0.8125 -11.285156 0.8125 -11.765625 Z M 0.8125 -16.234375 "/></g></g><g transform="translate(114.364704, 262.069339)"><g><path d="M 16.4375 -6.53125 L 15.734375 -9.265625 L 16.65625 -12.90625 C 16.6875 -13.019531 16.707031 -13.140625 16.71875 -13.265625 C 16.738281 -13.390625 16.75 -13.503906 16.75 -13.609375 C 16.75 -13.835938 16.695312 -14.035156 16.59375 -14.203125 C 16.488281 -14.378906 16.335938 -14.53125 16.140625 -14.65625 C 16.066406 -14.695312 15.976562 -14.742188 15.875 -14.796875 C 15.519531 -14.960938 15.34375 -15.203125 15.34375 -15.515625 C 15.34375 -15.765625 15.421875 -15.945312 15.578125 -16.0625 C 15.742188 -16.175781 16.003906 -16.234375 16.359375 -16.234375 L 19.0625 -16.234375 C 19.445312 -16.234375 19.710938 -16.179688 19.859375 -16.078125 C 20.003906 -15.984375 20.078125 -15.804688 20.078125 -15.546875 C 20.078125 -15.203125 19.859375 -14.957031 19.421875 -14.8125 C 19.242188 -14.75 19.117188 -14.695312 19.046875 -14.65625 C 18.816406 -14.507812 18.628906 -14.3125 18.484375 -14.0625 C 18.335938 -13.8125 18.195312 -13.429688 18.0625 -12.921875 Z M 14.671875 0.109375 L 11.953125 0.109375 L 9.171875 -10.484375 L 10.609375 -16.234375 L 13.234375 -16.234375 L 16.078125 -5.328125 Z M 9.765625 -5.578125 L 8.34375 0.109375 L 5.640625 0.109375 L 2 -13.71875 C 1.894531 -14.101562 1.804688 -14.351562 1.734375 -14.46875 C 1.660156 -14.582031 1.550781 -14.675781 1.40625 -14.75 C 1.363281 -14.757812 1.300781 -14.785156 1.21875 -14.828125 C 0.832031 -14.992188 0.640625 -15.222656 0.640625 -15.515625 C 0.640625 -15.796875 0.726562 -15.984375 0.90625 -16.078125 C 1.082031 -16.179688 1.429688 -16.234375 1.953125 -16.234375 L 7.203125 -16.234375 C 7.679688 -16.234375 8.019531 -16.175781 8.21875 -16.0625 C 8.414062 -15.945312 8.515625 -15.75 8.515625 -15.46875 C 8.515625 -15.21875 8.347656 -15 8.015625 -14.8125 C 7.691406 -14.625 7.53125 -14.410156 7.53125 -14.171875 C 7.53125 -14.128906 7.535156 -14.066406 7.546875 -13.984375 C 7.554688 -13.910156 7.570312 -13.832031 7.59375 -13.75 Z M 9.765625 -5.578125 "/></g></g><g transform="translate(135.062483, 262.069339)"><g><path d="M 8.5625 -4.046875 L 5.171875 -4.046875 L 5.640625 -5.703125 L 8.171875 -5.703125 L 5.90625 -14.875 L 6.296875 -16.234375 L 11.15625 -16.234375 L 14.53125 -2.53125 C 14.550781 -2.457031 14.578125 -2.363281 14.609375 -2.25 C 14.640625 -2.144531 14.65625 -2.082031 14.65625 -2.0625 C 14.65625 -1.84375 14.859375 -1.632812 15.265625 -1.4375 C 15.679688 -1.238281 15.890625 -0.992188 15.890625 -0.703125 C 15.890625 -0.429688 15.800781 -0.242188 15.625 -0.140625 C 15.445312 -0.046875 15.097656 0 14.578125 0 L 9.328125 0 C 8.859375 0 8.523438 -0.0546875 8.328125 -0.171875 C 8.140625 -0.285156 8.046875 -0.484375 8.046875 -0.765625 C 8.046875 -1.015625 8.207031 -1.234375 8.53125 -1.421875 C 8.851562 -1.609375 9.015625 -1.820312 9.015625 -2.0625 C 9.015625 -2.09375 9.007812 -2.144531 9 -2.21875 C 8.988281 -2.289062 8.972656 -2.378906 8.953125 -2.484375 Z M 6.234375 -10.84375 L 4.234375 -3.328125 C 4.191406 -3.210938 4.160156 -3.097656 4.140625 -2.984375 C 4.128906 -2.867188 4.125 -2.757812 4.125 -2.65625 C 4.125 -2.40625 4.175781 -2.1875 4.28125 -2 C 4.394531 -1.820312 4.554688 -1.6875 4.765625 -1.59375 C 4.847656 -1.550781 4.953125 -1.503906 5.078125 -1.453125 C 5.460938 -1.273438 5.65625 -1.023438 5.65625 -0.703125 C 5.65625 -0.460938 5.566406 -0.285156 5.390625 -0.171875 C 5.210938 -0.0546875 4.925781 0 4.53125 0 L 1.703125 0 C 1.296875 0 1.015625 -0.046875 0.859375 -0.140625 C 0.703125 -0.242188 0.625 -0.425781 0.625 -0.6875 C 0.625 -1.03125 0.851562 -1.273438 1.3125 -1.421875 C 1.5 -1.484375 1.632812 -1.535156 1.71875 -1.578125 C 1.976562 -1.734375 2.191406 -1.9375 2.359375 -2.1875 C 2.523438 -2.445312 2.675781 -2.820312 2.8125 -3.3125 L 5.578125 -13.59375 Z M 6.234375 -10.84375 "/></g></g><g transform="translate(151.627444, 262.069339)"><g><path d="M 7.546875 0 L 1.609375 0 C 1.253906 0 1.003906 -0.046875 0.859375 -0.140625 C 0.710938 -0.242188 0.640625 -0.414062 0.640625 -0.65625 C 0.640625 -0.976562 0.832031 -1.226562 1.21875 -1.40625 C 1.3125 -1.4375 1.378906 -1.46875 1.421875 -1.5 C 1.597656 -1.582031 1.710938 -1.679688 1.765625 -1.796875 C 1.828125 -1.921875 1.859375 -2.15625 1.859375 -2.5 L 1.859375 -13.734375 C 1.859375 -14.085938 1.828125 -14.320312 1.765625 -14.4375 C 1.710938 -14.550781 1.597656 -14.65625 1.421875 -14.75 C 1.378906 -14.769531 1.3125 -14.796875 1.21875 -14.828125 C 0.832031 -15.003906 0.640625 -15.25 0.640625 -15.5625 C 0.640625 -15.8125 0.710938 -15.984375 0.859375 -16.078125 C 1.003906 -16.179688 1.253906 -16.234375 1.609375 -16.234375 L 7.28125 -16.234375 L 7.28125 -2.328125 C 7.28125 -2.085938 7.3125 -1.910156 7.375 -1.796875 C 7.4375 -1.691406 7.554688 -1.59375 7.734375 -1.5 C 7.773438 -1.46875 7.835938 -1.4375 7.921875 -1.40625 C 8.316406 -1.226562 8.515625 -0.976562 8.515625 -0.65625 C 8.515625 -0.414062 8.441406 -0.242188 8.296875 -0.140625 C 8.148438 -0.046875 7.898438 0 7.546875 0 Z M 7.984375 -8.671875 C 8.492188 -8.703125 8.863281 -8.878906 9.09375 -9.203125 C 9.320312 -9.523438 9.4375 -10.03125 9.4375 -10.71875 L 9.4375 -12.8125 C 9.4375 -13.5 9.320312 -14 9.09375 -14.3125 C 8.863281 -14.632812 8.492188 -14.816406 7.984375 -14.859375 L 7.984375 -16.234375 C 8.085938 -16.242188 8.195312 -16.25 8.3125 -16.25 C 8.425781 -16.257812 8.597656 -16.265625 8.828125 -16.265625 C 10.835938 -16.265625 12.316406 -15.925781 13.265625 -15.25 C 14.222656 -14.570312 14.703125 -13.519531 14.703125 -12.09375 C 14.703125 -10.945312 14.367188 -10.046875 13.703125 -9.390625 C 13.046875 -8.742188 12.050781 -8.328125 10.71875 -8.140625 C 12.070312 -8.015625 13.082031 -7.691406 13.75 -7.171875 C 14.414062 -6.660156 14.75 -5.941406 14.75 -5.015625 L 14.75 -2.9375 C 14.75 -2.789062 14.765625 -2.679688 14.796875 -2.609375 C 14.835938 -2.535156 14.894531 -2.5 14.96875 -2.5 C 15.039062 -2.5 15.164062 -2.609375 15.34375 -2.828125 C 15.519531 -3.046875 15.703125 -3.15625 15.890625 -3.15625 C 16.078125 -3.15625 16.242188 -3.078125 16.390625 -2.921875 C 16.546875 -2.773438 16.625 -2.609375 16.625 -2.421875 C 16.625 -1.804688 16.273438 -1.222656 15.578125 -0.671875 C 14.878906 -0.117188 14.03125 0.15625 13.03125 0.15625 C 11.832031 0.15625 10.945312 -0.164062 10.375 -0.8125 C 9.8125 -1.457031 9.53125 -2.457031 9.53125 -3.8125 L 9.53125 -5.21875 C 9.53125 -5.875 9.410156 -6.359375 9.171875 -6.671875 C 8.929688 -6.992188 8.535156 -7.195312 7.984375 -7.28125 Z M 7.984375 -8.671875 "/></g></g><g transform="translate(168.304709, 262.069339)"><g><path d="M 8.046875 -7.609375 L 8.046875 -9.109375 C 8.390625 -9.203125 8.644531 -9.320312 8.8125 -9.46875 C 8.988281 -9.613281 9.132812 -9.816406 9.25 -10.078125 C 9.320312 -10.265625 9.414062 -10.503906 9.53125 -10.796875 C 9.71875 -11.328125 9.96875 -11.59375 10.28125 -11.59375 C 10.507812 -11.59375 10.671875 -11.5 10.765625 -11.3125 C 10.867188 -11.132812 10.921875 -10.816406 10.921875 -10.359375 L 10.921875 -6.28125 C 10.921875 -5.863281 10.867188 -5.566406 10.765625 -5.390625 C 10.671875 -5.210938 10.507812 -5.125 10.28125 -5.125 C 9.957031 -5.125 9.707031 -5.390625 9.53125 -5.921875 C 9.414062 -6.203125 9.320312 -6.4375 9.25 -6.625 C 9.132812 -6.882812 8.988281 -7.085938 8.8125 -7.234375 C 8.632812 -7.390625 8.378906 -7.515625 8.046875 -7.609375 Z M 8.046875 0 L 8.046875 -1.5 C 8.773438 -1.550781 9.394531 -1.722656 9.90625 -2.015625 C 10.425781 -2.304688 10.847656 -2.71875 11.171875 -3.25 C 11.296875 -3.4375 11.421875 -3.742188 11.546875 -4.171875 C 11.742188 -4.835938 12.019531 -5.171875 12.375 -5.171875 C 12.664062 -5.171875 12.867188 -5.054688 12.984375 -4.828125 C 13.097656 -4.609375 13.15625 -4.164062 13.15625 -3.5 L 13.15625 0 Z M 1.609375 0 C 1.253906 0 1.003906 -0.046875 0.859375 -0.140625 C 0.710938 -0.242188 0.640625 -0.414062 0.640625 -0.65625 C 0.640625 -0.976562 0.832031 -1.226562 1.21875 -1.40625 C 1.3125 -1.4375 1.378906 -1.46875 1.421875 -1.5 C 1.597656 -1.582031 1.710938 -1.679688 1.765625 -1.796875 C 1.828125 -1.921875 1.859375 -2.15625 1.859375 -2.5 L 1.859375 -13.734375 C 1.859375 -14.085938 1.828125 -14.320312 1.765625 -14.4375 C 1.710938 -14.550781 1.597656 -14.65625 1.421875 -14.75 C 1.378906 -14.769531 1.3125 -14.796875 1.21875 -14.828125 C 0.832031 -15.003906 0.640625 -15.25 0.640625 -15.5625 C 0.640625 -15.8125 0.710938 -15.984375 0.859375 -16.078125 C 1.003906 -16.179688 1.253906 -16.234375 1.609375 -16.234375 L 7.28125 -16.234375 L 7.28125 0 Z M 8.046875 -16.234375 L 13 -16.234375 L 13 -11.921875 C 13 -11.703125 12.9375 -11.53125 12.8125 -11.40625 C 12.695312 -11.28125 12.546875 -11.21875 12.359375 -11.21875 C 12.003906 -11.21875 11.710938 -11.53125 11.484375 -12.15625 C 11.316406 -12.5625 11.171875 -12.863281 11.046875 -13.0625 C 10.722656 -13.550781 10.300781 -13.9375 9.78125 -14.21875 C 9.269531 -14.507812 8.691406 -14.6875 8.046875 -14.75 Z M 8.046875 -16.234375 "/></g></g><g transform="translate(182.679726, 262.069339)"><g/></g><g transform="translate(189.766161, 262.069339)"><g><path d="M 7.328125 -15.15625 L 7.328125 -16.53125 C 8.015625 -16.519531 8.695312 -16.398438 9.375 -16.171875 C 10.0625 -15.953125 10.410156 -15.84375 10.421875 -15.84375 C 10.597656 -15.84375 10.773438 -15.957031 10.953125 -16.1875 C 11.140625 -16.425781 11.34375 -16.546875 11.5625 -16.546875 C 11.8125 -16.546875 11.984375 -16.476562 12.078125 -16.34375 C 12.179688 -16.21875 12.234375 -15.992188 12.234375 -15.671875 L 12.234375 -11.875 C 12.234375 -11.445312 12.179688 -11.160156 12.078125 -11.015625 C 11.972656 -10.867188 11.796875 -10.796875 11.546875 -10.796875 C 11.179688 -10.796875 10.90625 -11.117188 10.71875 -11.765625 C 10.632812 -12.054688 10.554688 -12.289062 10.484375 -12.46875 C 10.191406 -13.195312 9.773438 -13.789062 9.234375 -14.25 C 8.691406 -14.71875 8.054688 -15.019531 7.328125 -15.15625 Z M 6.875 0.328125 L 6.875 -1.21875 C 7.5625 -1.269531 8.070312 -1.425781 8.40625 -1.6875 C 8.738281 -1.957031 8.90625 -2.351562 8.90625 -2.875 C 8.90625 -3.738281 7.945312 -4.601562 6.03125 -5.46875 L 5.859375 -5.546875 C 3.984375 -6.378906 2.707031 -7.203125 2.03125 -8.015625 C 1.363281 -8.835938 1.03125 -9.851562 1.03125 -11.0625 C 1.03125 -12.675781 1.53125 -13.992188 2.53125 -15.015625 C 3.539062 -16.035156 4.847656 -16.546875 6.453125 -16.546875 L 6.65625 -16.546875 L 6.65625 -15.109375 C 6.195312 -15.023438 5.828125 -14.820312 5.546875 -14.5 C 5.265625 -14.1875 5.125 -13.816406 5.125 -13.390625 C 5.125 -12.566406 6.125 -11.757812 8.125 -10.96875 L 8.46875 -10.84375 C 10.101562 -10.175781 11.273438 -9.398438 11.984375 -8.515625 C 12.703125 -7.628906 13.0625 -6.515625 13.0625 -5.171875 C 13.0625 -3.523438 12.5 -2.195312 11.375 -1.1875 C 10.25 -0.175781 8.75 0.328125 6.875 0.328125 Z M 6.1875 -1.1875 L 6.1875 0.296875 C 5.539062 0.285156 4.867188 0.171875 4.171875 -0.046875 C 3.472656 -0.265625 3.078125 -0.375 2.984375 -0.375 C 2.796875 -0.375 2.617188 -0.257812 2.453125 -0.03125 C 2.285156 0.1875 2.085938 0.296875 1.859375 0.296875 C 1.617188 0.296875 1.429688 0.210938 1.296875 0.046875 C 1.160156 -0.117188 1.09375 -0.351562 1.09375 -0.65625 L 1.09375 -4.890625 C 1.09375 -5.347656 1.144531 -5.660156 1.25 -5.828125 C 1.363281 -6.003906 1.5625 -6.09375 1.84375 -6.09375 C 2.21875 -6.09375 2.492188 -5.742188 2.671875 -5.046875 C 2.765625 -4.703125 2.847656 -4.429688 2.921875 -4.234375 C 3.210938 -3.460938 3.644531 -2.804688 4.21875 -2.265625 C 4.800781 -1.734375 5.457031 -1.375 6.1875 -1.1875 Z M 6.1875 -1.1875 "/></g></g><g transform="translate(203.703189, 262.069339)"><g><path d="M 9.53125 -3.21875 L 9.53125 -13.015625 C 9.53125 -13.847656 9.445312 -14.398438 9.28125 -14.671875 C 9.125 -14.953125 8.835938 -15.113281 8.421875 -15.15625 L 8.421875 -16.546875 C 10.609375 -16.359375 12.304688 -15.523438 13.515625 -14.046875 C 14.734375 -12.578125 15.34375 -10.601562 15.34375 -8.125 C 15.34375 -5.632812 14.734375 -3.648438 13.515625 -2.171875 C 12.304688 -0.703125 10.609375 0.117188 8.421875 0.296875 L 8.421875 -1.078125 C 8.835938 -1.117188 9.125 -1.28125 9.28125 -1.5625 C 9.445312 -1.84375 9.53125 -2.394531 9.53125 -3.21875 Z M 6.609375 -3.21875 C 6.609375 -2.40625 6.6875 -1.851562 6.84375 -1.5625 C 7.007812 -1.28125 7.304688 -1.117188 7.734375 -1.078125 L 7.734375 0.296875 C 5.546875 0.140625 3.84375 -0.675781 2.625 -2.15625 C 1.414062 -3.644531 0.8125 -5.632812 0.8125 -8.125 C 0.8125 -10.601562 1.414062 -12.578125 2.625 -14.046875 C 3.84375 -15.523438 5.546875 -16.359375 7.734375 -16.546875 L 7.734375 -15.15625 C 7.304688 -15.113281 7.007812 -14.945312 6.84375 -14.65625 C 6.6875 -14.375 6.609375 -13.828125 6.609375 -13.015625 Z M 6.609375 -3.21875 "/></g></g><g transform="translate(219.830161, 262.069339)"><g><path d="M 7.984375 0 L 7.984375 -1.5 C 8.640625 -1.53125 9.210938 -1.710938 9.703125 -2.046875 C 10.191406 -2.378906 10.582031 -2.847656 10.875 -3.453125 C 11.019531 -3.753906 11.171875 -4.160156 11.328125 -4.671875 C 11.523438 -5.347656 11.773438 -5.6875 12.078125 -5.6875 C 12.359375 -5.6875 12.550781 -5.578125 12.65625 -5.359375 C 12.757812 -5.148438 12.8125 -4.644531 12.8125 -3.84375 L 12.8125 0 Z M 1.609375 0 C 1.253906 0 1.003906 -0.046875 0.859375 -0.140625 C 0.710938 -0.242188 0.640625 -0.414062 0.640625 -0.65625 C 0.640625 -0.976562 0.832031 -1.226562 1.21875 -1.40625 C 1.3125 -1.4375 1.378906 -1.46875 1.421875 -1.5 C 1.597656 -1.582031 1.710938 -1.679688 1.765625 -1.796875 C 1.828125 -1.921875 1.859375 -2.15625 1.859375 -2.5 L 1.859375 -13.734375 C 1.859375 -14.085938 1.828125 -14.320312 1.765625 -14.4375 C 1.710938 -14.550781 1.597656 -14.65625 1.421875 -14.75 C 1.378906 -14.769531 1.3125 -14.796875 1.21875 -14.828125 C 0.832031 -15.003906 0.640625 -15.25 0.640625 -15.5625 C 0.640625 -15.8125 0.710938 -15.984375 0.859375 -16.078125 C 1.003906 -16.179688 1.253906 -16.234375 1.609375 -16.234375 L 7.546875 -16.234375 C 7.898438 -16.234375 8.148438 -16.179688 8.296875 -16.078125 C 8.441406 -15.984375 8.515625 -15.8125 8.515625 -15.5625 C 8.515625 -15.25 8.316406 -15.003906 7.921875 -14.828125 C 7.835938 -14.796875 7.773438 -14.769531 7.734375 -14.75 C 7.554688 -14.65625 7.4375 -14.550781 7.375 -14.4375 C 7.3125 -14.320312 7.28125 -14.085938 7.28125 -13.734375 L 7.28125 0 Z M 1.609375 0 "/></g></g><g transform="translate(234.003029, 262.069339)"><g><path d="M 2.015625 -4.484375 L 2.015625 -13.734375 C 2.015625 -14.085938 1.988281 -14.320312 1.9375 -14.4375 C 1.882812 -14.550781 1.765625 -14.65625 1.578125 -14.75 C 1.535156 -14.769531 1.46875 -14.796875 1.375 -14.828125 C 0.976562 -15.003906 0.78125 -15.25 0.78125 -15.5625 C 0.78125 -15.800781 0.851562 -15.972656 1 -16.078125 C 1.15625 -16.179688 1.414062 -16.234375 1.78125 -16.234375 L 7.796875 -16.234375 C 8.253906 -16.234375 8.5625 -16.1875 8.71875 -16.09375 C 8.882812 -16 8.96875 -15.832031 8.96875 -15.59375 C 8.96875 -15.25 8.707031 -14.984375 8.1875 -14.796875 C 8.101562 -14.765625 8.039062 -14.738281 8 -14.71875 C 7.789062 -14.632812 7.65625 -14.546875 7.59375 -14.453125 C 7.53125 -14.359375 7.5 -14.15625 7.5 -13.84375 L 7.5 -3.578125 C 7.5 -2.785156 7.601562 -2.25 7.8125 -1.96875 C 8.019531 -1.6875 8.394531 -1.519531 8.9375 -1.46875 L 8.953125 0.21875 C 8.710938 0.226562 8.414062 0.238281 8.0625 0.25 C 7.707031 0.269531 7.5 0.28125 7.4375 0.28125 C 5.570312 0.28125 4.203125 -0.0976562 3.328125 -0.859375 C 2.453125 -1.628906 2.015625 -2.835938 2.015625 -4.484375 Z M 9.640625 0.15625 L 9.640625 -1.421875 C 10.648438 -1.566406 11.375 -1.929688 11.8125 -2.515625 C 12.25 -3.097656 12.46875 -4.007812 12.46875 -5.25 L 12.46875 -12.5625 C 12.46875 -12.96875 12.410156 -13.320312 12.296875 -13.625 C 12.179688 -13.925781 12.007812 -14.175781 11.78125 -14.375 C 11.65625 -14.476562 11.46875 -14.597656 11.21875 -14.734375 C 10.789062 -14.960938 10.578125 -15.21875 10.578125 -15.5 C 10.578125 -15.757812 10.648438 -15.945312 10.796875 -16.0625 C 10.953125 -16.175781 11.191406 -16.234375 11.515625 -16.234375 L 14.953125 -16.234375 C 15.273438 -16.234375 15.507812 -16.175781 15.65625 -16.0625 C 15.8125 -15.945312 15.890625 -15.757812 15.890625 -15.5 C 15.890625 -15.226562 15.703125 -14.988281 15.328125 -14.78125 C 14.960938 -14.570312 14.707031 -14.390625 14.5625 -14.234375 C 14.363281 -14.023438 14.21875 -13.769531 14.125 -13.46875 C 14.039062 -13.175781 14 -12.671875 14 -11.953125 L 14 -5.8125 C 14 -3.863281 13.664062 -2.4375 13 -1.53125 C 12.332031 -0.625 11.210938 -0.0625 9.640625 0.15625 Z M 9.640625 0.15625 "/></g></g><g transform="translate(250.197384, 262.069339)"><g><path d="M 10.421875 -16.234375 L 10.421875 -2.234375 C 10.421875 -1.878906 10.644531 -1.613281 11.09375 -1.4375 L 11.125 -1.421875 C 11.414062 -1.328125 11.613281 -1.222656 11.71875 -1.109375 C 11.820312 -0.992188 11.875 -0.835938 11.875 -0.640625 C 11.875 -0.398438 11.789062 -0.234375 11.625 -0.140625 C 11.46875 -0.046875 11.164062 0 10.71875 0 L 4.671875 0 C 4.222656 0 3.914062 -0.046875 3.75 -0.140625 C 3.59375 -0.234375 3.515625 -0.398438 3.515625 -0.640625 C 3.515625 -0.984375 3.773438 -1.253906 4.296875 -1.453125 C 4.367188 -1.484375 4.421875 -1.503906 4.453125 -1.515625 C 4.660156 -1.597656 4.796875 -1.6875 4.859375 -1.78125 C 4.929688 -1.875 4.96875 -2.078125 4.96875 -2.390625 L 4.96875 -16.234375 Z M 14.375 -16.234375 L 14.375 -11.390625 C 14.375 -11.128906 14.296875 -10.921875 14.140625 -10.765625 C 13.992188 -10.609375 13.800781 -10.53125 13.5625 -10.53125 C 13.082031 -10.53125 12.789062 -10.894531 12.6875 -11.625 C 12.65625 -11.84375 12.625 -12.007812 12.59375 -12.125 C 12.4375 -12.820312 12.234375 -13.382812 11.984375 -13.8125 C 11.734375 -14.25 11.441406 -14.546875 11.109375 -14.703125 L 11.109375 -16.234375 Z M 0.8125 -16.234375 L 4.0625 -16.234375 L 4.0625 -14.703125 C 3.738281 -14.546875 3.445312 -14.25 3.1875 -13.8125 C 2.9375 -13.382812 2.734375 -12.820312 2.578125 -12.125 C 2.546875 -12.007812 2.519531 -11.84375 2.5 -11.625 C 2.382812 -10.894531 2.085938 -10.53125 1.609375 -10.53125 C 1.316406 -10.53125 1.109375 -10.613281 0.984375 -10.78125 C 0.867188 -10.957031 0.8125 -11.285156 0.8125 -11.765625 Z M 0.8125 -16.234375 "/></g></g><g transform="translate(265.380996, 262.069339)"><g><path d="M 7.546875 -16.234375 C 7.898438 -16.234375 8.148438 -16.179688 8.296875 -16.078125 C 8.453125 -15.972656 8.53125 -15.800781 8.53125 -15.5625 C 8.53125 -15.25 8.335938 -15.007812 7.953125 -14.84375 C 7.847656 -14.800781 7.773438 -14.769531 7.734375 -14.75 C 7.554688 -14.65625 7.4375 -14.550781 7.375 -14.4375 C 7.3125 -14.320312 7.28125 -14.085938 7.28125 -13.734375 L 7.28125 -2.453125 C 7.28125 -2.148438 7.300781 -1.945312 7.34375 -1.84375 C 7.394531 -1.738281 7.484375 -1.648438 7.609375 -1.578125 C 7.660156 -1.535156 7.753906 -1.488281 7.890625 -1.4375 C 8.316406 -1.25 8.53125 -0.988281 8.53125 -0.65625 C 8.53125 -0.425781 8.453125 -0.257812 8.296875 -0.15625 C 8.148438 -0.0507812 7.898438 0 7.546875 0 L 1.609375 0 C 1.253906 0 1.003906 -0.046875 0.859375 -0.140625 C 0.710938 -0.242188 0.640625 -0.414062 0.640625 -0.65625 C 0.640625 -0.976562 0.832031 -1.226562 1.21875 -1.40625 C 1.3125 -1.4375 1.378906 -1.46875 1.421875 -1.5 C 1.597656 -1.582031 1.710938 -1.679688 1.765625 -1.796875 C 1.828125 -1.921875 1.859375 -2.15625 1.859375 -2.5 L 1.859375 -13.734375 C 1.859375 -14.085938 1.828125 -14.320312 1.765625 -14.4375 C 1.710938 -14.550781 1.597656 -14.65625 1.421875 -14.75 C 1.378906 -14.769531 1.3125 -14.796875 1.21875 -14.828125 C 0.832031 -15.003906 0.640625 -15.25 0.640625 -15.5625 C 0.640625 -15.8125 0.710938 -15.984375 0.859375 -16.078125 C 1.003906 -16.179688 1.253906 -16.234375 1.609375 -16.234375 Z M 7.546875 -16.234375 "/></g></g><g transform="translate(274.533839, 262.069339)"><g><path d="M 9.53125 -3.21875 L 9.53125 -13.015625 C 9.53125 -13.847656 9.445312 -14.398438 9.28125 -14.671875 C 9.125 -14.953125 8.835938 -15.113281 8.421875 -15.15625 L 8.421875 -16.546875 C 10.609375 -16.359375 12.304688 -15.523438 13.515625 -14.046875 C 14.734375 -12.578125 15.34375 -10.601562 15.34375 -8.125 C 15.34375 -5.632812 14.734375 -3.648438 13.515625 -2.171875 C 12.304688 -0.703125 10.609375 0.117188 8.421875 0.296875 L 8.421875 -1.078125 C 8.835938 -1.117188 9.125 -1.28125 9.28125 -1.5625 C 9.445312 -1.84375 9.53125 -2.394531 9.53125 -3.21875 Z M 6.609375 -3.21875 C 6.609375 -2.40625 6.6875 -1.851562 6.84375 -1.5625 C 7.007812 -1.28125 7.304688 -1.117188 7.734375 -1.078125 L 7.734375 0.296875 C 5.546875 0.140625 3.84375 -0.675781 2.625 -2.15625 C 1.414062 -3.644531 0.8125 -5.632812 0.8125 -8.125 C 0.8125 -10.601562 1.414062 -12.578125 2.625 -14.046875 C 3.84375 -15.523438 5.546875 -16.359375 7.734375 -16.546875 L 7.734375 -15.15625 C 7.304688 -15.113281 7.007812 -14.945312 6.84375 -14.65625 C 6.6875 -14.375 6.609375 -13.828125 6.609375 -13.015625 Z M 6.609375 -3.21875 "/></g></g><g transform="translate(290.660811, 262.069339)"><g><path d="M 13.484375 0 L 10.125 0 L 1.890625 -14.203125 C 1.679688 -14.554688 1.34375 -14.800781 0.875 -14.9375 C 0.414062 -15.082031 0.1875 -15.3125 0.1875 -15.625 C 0.1875 -15.84375 0.25 -16 0.375 -16.09375 C 0.507812 -16.1875 0.738281 -16.234375 1.0625 -16.234375 L 7.21875 -16.234375 L 13.484375 -5.421875 Z M 13.484375 -6.71875 L 12.15625 -8.96875 L 12.15625 -11.953125 C 12.15625 -12.679688 12.113281 -13.195312 12.03125 -13.5 C 11.957031 -13.800781 11.816406 -14.054688 11.609375 -14.265625 C 11.472656 -14.398438 11.21875 -14.570312 10.84375 -14.78125 C 10.46875 -14.988281 10.28125 -15.226562 10.28125 -15.5 C 10.28125 -15.757812 10.351562 -15.945312 10.5 -16.0625 C 10.644531 -16.175781 10.882812 -16.234375 11.21875 -16.234375 L 14.390625 -16.234375 C 14.734375 -16.234375 14.976562 -16.171875 15.125 -16.046875 C 15.28125 -15.929688 15.359375 -15.75 15.359375 -15.5 C 15.359375 -15.226562 15.164062 -14.988281 14.78125 -14.78125 C 14.40625 -14.570312 14.144531 -14.398438 14 -14.265625 C 13.8125 -14.066406 13.675781 -13.828125 13.59375 -13.546875 C 13.519531 -13.265625 13.484375 -12.734375 13.484375 -11.953125 Z M 2.0625 -12.625 L 3.375 -10.375 L 3.375 -3.78125 C 3.375 -3.351562 3.421875 -2.988281 3.515625 -2.6875 C 3.609375 -2.394531 3.75 -2.160156 3.9375 -1.984375 C 4.070312 -1.835938 4.328125 -1.660156 4.703125 -1.453125 C 5.078125 -1.242188 5.265625 -1.003906 5.265625 -0.734375 C 5.265625 -0.484375 5.1875 -0.296875 5.03125 -0.171875 C 4.882812 -0.0546875 4.640625 0 4.296875 0 L 1.140625 0 C 0.816406 0 0.578125 -0.0546875 0.421875 -0.171875 C 0.265625 -0.296875 0.1875 -0.484375 0.1875 -0.734375 C 0.1875 -1.003906 0.375 -1.242188 0.75 -1.453125 C 1.132812 -1.660156 1.394531 -1.835938 1.53125 -1.984375 C 1.726562 -2.171875 1.863281 -2.40625 1.9375 -2.6875 C 2.019531 -2.976562 2.0625 -3.507812 2.0625 -4.28125 Z M 2.0625 -12.625 "/></g></g><g transform="translate(306.203798, 262.069339)"><g><path d="M 7.328125 -15.15625 L 7.328125 -16.53125 C 8.015625 -16.519531 8.695312 -16.398438 9.375 -16.171875 C 10.0625 -15.953125 10.410156 -15.84375 10.421875 -15.84375 C 10.597656 -15.84375 10.773438 -15.957031 10.953125 -16.1875 C 11.140625 -16.425781 11.34375 -16.546875 11.5625 -16.546875 C 11.8125 -16.546875 11.984375 -16.476562 12.078125 -16.34375 C 12.179688 -16.21875 12.234375 -15.992188 12.234375 -15.671875 L 12.234375 -11.875 C 12.234375 -11.445312 12.179688 -11.160156 12.078125 -11.015625 C 11.972656 -10.867188 11.796875 -10.796875 11.546875 -10.796875 C 11.179688 -10.796875 10.90625 -11.117188 10.71875 -11.765625 C 10.632812 -12.054688 10.554688 -12.289062 10.484375 -12.46875 C 10.191406 -13.195312 9.773438 -13.789062 9.234375 -14.25 C 8.691406 -14.71875 8.054688 -15.019531 7.328125 -15.15625 Z M 6.875 0.328125 L 6.875 -1.21875 C 7.5625 -1.269531 8.070312 -1.425781 8.40625 -1.6875 C 8.738281 -1.957031 8.90625 -2.351562 8.90625 -2.875 C 8.90625 -3.738281 7.945312 -4.601562 6.03125 -5.46875 L 5.859375 -5.546875 C 3.984375 -6.378906 2.707031 -7.203125 2.03125 -8.015625 C 1.363281 -8.835938 1.03125 -9.851562 1.03125 -11.0625 C 1.03125 -12.675781 1.53125 -13.992188 2.53125 -15.015625 C 3.539062 -16.035156 4.847656 -16.546875 6.453125 -16.546875 L 6.65625 -16.546875 L 6.65625 -15.109375 C 6.195312 -15.023438 5.828125 -14.820312 5.546875 -14.5 C 5.265625 -14.1875 5.125 -13.816406 5.125 -13.390625 C 5.125 -12.566406 6.125 -11.757812 8.125 -10.96875 L 8.46875 -10.84375 C 10.101562 -10.175781 11.273438 -9.398438 11.984375 -8.515625 C 12.703125 -7.628906 13.0625 -6.515625 13.0625 -5.171875 C 13.0625 -3.523438 12.5 -2.195312 11.375 -1.1875 C 10.25 -0.175781 8.75 0.328125 6.875 0.328125 Z M 6.1875 -1.1875 L 6.1875 0.296875 C 5.539062 0.285156 4.867188 0.171875 4.171875 -0.046875 C 3.472656 -0.265625 3.078125 -0.375 2.984375 -0.375 C 2.796875 -0.375 2.617188 -0.257812 2.453125 -0.03125 C 2.285156 0.1875 2.085938 0.296875 1.859375 0.296875 C 1.617188 0.296875 1.429688 0.210938 1.296875 0.046875 C 1.160156 -0.117188 1.09375 -0.351562 1.09375 -0.65625 L 1.09375 -4.890625 C 1.09375 -5.347656 1.144531 -5.660156 1.25 -5.828125 C 1.363281 -6.003906 1.5625 -6.09375 1.84375 -6.09375 C 2.21875 -6.09375 2.492188 -5.742188 2.671875 -5.046875 C 2.765625 -4.703125 2.847656 -4.429688 2.921875 -4.234375 C 3.210938 -3.460938 3.644531 -2.804688 4.21875 -2.265625 C 4.800781 -1.734375 5.457031 -1.375 6.1875 -1.1875 Z M 6.1875 -1.1875 "/></g></g></g><path stroke-linecap="butt" transform="matrix(0.677448, 0, 0, 0.677448, 53.353947, 53.930449)" fill="none" stroke-linejoin="miter" d="M 230.635868 142.854718 L 230.635868 148.949517 C 230.635868 163.480161 227.977683 177.128588 222.655546 189.889031 C 217.339175 202.643709 209.987361 213.893426 200.600103 223.620885 C 191.212845 233.354111 180.314862 240.925038 167.906152 246.327901 C 155.491677 251.73653 142.212282 254.440844 128.067968 254.440844 C 113.883291 254.440844 100.626961 251.776893 88.298977 246.460522 C 76.017123 241.138385 65.228695 233.786571 55.92793 224.399313 C 46.627164 215.017821 39.361841 204.183265 34.131962 191.895644 C 28.896317 179.573427 26.278495 166.317097 26.278495 152.13242 C 26.278495 137.988106 28.896317 124.708711 34.131962 112.294235 C 39.361841 99.885526 46.627164 88.981776 55.92793 79.600285 C 65.228695 70.213027 76.017123 62.861212 88.298977 57.539076 C 100.626961 52.222705 113.796799 49.558753 127.808492 49.558753 C 146.190911 49.558753 163.126031 53.952543 178.608087 62.728592 C 194.136273 71.510406 206.331635 83.169518 215.199941 97.700163 L 182.240749 121.571937 C 177.091596 111.844477 169.699418 103.967945 160.052685 97.959639 C 150.405951 91.905204 139.750145 88.877986 128.067968 88.877986 C 117.083492 88.877986 107.073493 91.73222 98.032203 97.440687 C 88.990913 103.103026 81.812082 110.720082 76.495711 120.274558 C 71.173574 129.834799 68.515389 140.450243 68.515389 152.13242 C 68.515389 163.67621 71.173574 174.228225 76.495711 183.788467 C 81.812082 193.348709 88.990913 200.91387 98.032203 206.495483 C 107.073493 212.077095 117.083492 214.862136 128.067968 214.862136 C 140.096113 214.862136 151.097887 211.857982 161.090588 205.84391 C 171.123652 199.789475 178.348612 191.013427 182.7597 179.51 L 129.105871 179.51 L 129.105871 142.854718 Z M 230.635868 142.854718 " stroke="#000000" stroke-width="3.653829" stroke-opacity="1" stroke-miterlimit="4"/><g fill="#000000" fill-opacity="1"><g transform="translate(63.949651, 223.96979)"><g><path d="M 145.625 -73.265625 L 145.625 -69.125 C 145.625 -59.28125 143.820312 -50.035156 140.21875 -41.390625 C 136.625 -32.753906 131.644531 -25.132812 125.28125 -18.53125 C 118.925781 -11.9375 111.546875 -6.804688 103.140625 -3.140625 C 94.742188 0.515625 85.742188 2.34375 76.140625 2.34375 C 66.546875 2.34375 57.578125 0.546875 49.234375 -3.046875 C 40.890625 -6.648438 33.566406 -11.632812 27.265625 -18 C 20.972656 -24.363281 16.054688 -31.710938 12.515625 -40.046875 C 8.972656 -48.390625 7.203125 -57.363281 7.203125 -66.96875 C 7.203125 -76.5625 8.972656 -85.554688 12.515625 -93.953125 C 16.054688 -102.359375 20.972656 -109.742188 27.265625 -116.109375 C 33.566406 -122.472656 40.890625 -127.453125 49.234375 -131.046875 C 57.578125 -134.648438 66.488281 -136.453125 75.96875 -136.453125 C 88.445312 -136.453125 99.9375 -133.476562 110.4375 -127.53125 C 120.9375 -121.59375 129.1875 -113.707031 135.1875 -103.875 L 112.875 -87.671875 C 109.394531 -94.265625 104.382812 -99.601562 97.84375 -103.6875 C 91.300781 -107.769531 84.066406 -109.8125 76.140625 -109.8125 C 68.703125 -109.8125 61.921875 -107.890625 55.796875 -104.046875 C 49.679688 -100.203125 44.820312 -95.039062 41.21875 -88.5625 C 37.625 -82.082031 35.828125 -74.882812 35.828125 -66.96875 C 35.828125 -59.164062 37.625 -52.023438 41.21875 -45.546875 C 44.820312 -39.066406 49.679688 -33.9375 55.796875 -30.15625 C 61.921875 -26.375 68.703125 -24.484375 76.140625 -24.484375 C 84.304688 -24.484375 91.78125 -26.519531 98.5625 -30.59375 C 105.34375 -34.675781 110.234375 -40.617188 113.234375 -48.421875 L 76.859375 -48.421875 L 76.859375 -73.265625 Z M 145.625 -73.265625 "/></g></g></g></svg>