<svg xmlns="http://www.w3.org/2000/svg" xmlns:xlink="http://www.w3.org/1999/xlink" width="500" zoomAndPan="magnify" viewBox="0 0 375 374.999991" height="500" preserveAspectRatio="xMidYMid meet" version="1.0"><defs><clipPath id="def4468cc2"><path d="M 0 28 L 371.25 28 L 371.25 350 L 0 350 Z M 0 28 " clip-rule="nonzero"/></clipPath></defs><path fill="#53c1de" d="M 218.777344 188.695312 C 218.777344 170.953125 203.933594 156.566406 185.625 156.566406 C 167.316406 156.566406 152.472656 170.953125 152.472656 188.695312 C 152.472656 206.441406 167.316406 220.824219 185.625 220.824219 C 203.933594 220.824219 218.777344 206.441406 218.777344 188.695312 Z M 218.777344 188.695312 " fill-opacity="1" fill-rule="nonzero"/><g clip-path="url(#def4468cc2)"><path fill="#53c1de" d="M 293.292969 129.046875 C 300.292969 101.476562 309.09375 50.347656 278.070312 33.015625 C 247.195312 15.757812 207.015625 48.828125 185.796875 68.675781 C 164.640625 49.023438 123.332031 16.09375 92.335938 33.484375 C 61.472656 50.800781 70.992188 101.078125 78.148438 128.824219 C 49.355469 136.75 0 153.820312 0 188.695312 C 0 223.472656 49.304688 242.042969 77.925781 249.960938 C 70.742188 277.859375 61.703125 327.417969 92.605469 344.695312 C 123.714844 362.082031 164.898438 329.9375 186.3125 309.871094 C 207.664062 329.835938 247.457031 362.191406 278.339844 344.867188 C 309.320312 327.484375 301.253906 277.042969 294.09375 249.140625 C 321.839844 241.203125 371.25 223.039062 371.25 188.695312 C 371.25 154.152344 321.628906 136.945312 293.292969 129.046875 Z M 289.777344 234.351562 C 285.078125 219.9375 278.734375 204.605469 270.976562 188.769531 C 278.382812 173.308594 284.476562 158.175781 289.046875 143.855469 C 309.820312 149.691406 355.390625 163.03125 355.390625 188.695312 C 355.390625 214.597656 311.660156 228.0625 289.777344 234.351562 Z M 270.394531 331.5625 C 247.351562 344.488281 213.125 313.546875 197.355469 298.84375 C 207.816406 287.753906 218.269531 274.863281 228.472656 260.550781 C 246.421875 259.007812 263.378906 256.484375 278.753906 253.039062 C 283.789062 272.777344 293.539062 318.578125 270.394531 331.5625 Z M 100.53125 331.378906 C 77.484375 318.5 88.019531 274.277344 93.300781 253.726562 C 108.507812 256.988281 125.339844 259.332031 143.332031 260.746094 C 153.601562 274.753906 164.359375 287.628906 175.199219 298.90625 C 161.808594 311.460938 123.683594 344.316406 100.53125 331.378906 Z M 15.859375 188.695312 C 15.859375 162.695312 61.15625 149.449219 82.40625 143.628906 C 87.050781 158.273438 93.144531 173.585938 100.5 189.070312 C 93.050781 204.785156 86.871094 220.339844 82.179688 235.15625 C 61.921875 229.535156 15.859375 214.710938 15.859375 188.695312 Z M 100.285156 46.785156 C 123.421875 33.804688 159.324219 65.417969 174.683594 79.648438 C 163.898438 90.871094 153.242188 103.648438 143.058594 117.578125 C 125.597656 119.144531 108.882812 121.664062 93.519531 125.039062 C 87.753906 102.660156 77.167969 59.753906 100.285156 46.785156 Z M 239.820312 134.285156 C 251.664062 135.730469 263.011719 137.660156 273.667969 140.015625 C 270.46875 149.953125 266.484375 160.347656 261.785156 171 C 254.980469 158.480469 247.671875 146.214844 239.820312 134.285156 Z M 185.800781 90.632812 C 193.117188 98.3125 200.441406 106.886719 207.648438 116.191406 C 193.03125 115.519531 178.390625 115.519531 163.769531 116.183594 C 170.984375 106.964844 178.375 98.398438 185.800781 90.632812 Z M 109.597656 170.988281 C 104.980469 160.371094 101.027344 149.933594 97.800781 139.855469 C 108.394531 137.558594 119.691406 135.679688 131.460938 134.253906 C 123.585938 146.160156 116.289062 158.421875 109.597656 170.988281 Z M 131.796875 244.230469 C 119.640625 242.917969 108.171875 241.132812 97.582031 238.898438 C 100.863281 228.644531 104.898438 217.980469 109.617188 207.136719 C 116.398438 219.832031 123.804688 232.214844 131.796875 244.230469 Z M 186.242188 287.84375 C 178.726562 279.984375 171.226562 271.289062 163.90625 261.9375 C 178.605469 262.496094 193.335938 262.496094 208.035156 261.863281 C 200.808594 271.382812 193.507812 280.089844 186.242188 287.84375 Z M 261.9375 206.585938 C 266.898438 217.546875 271.082031 228.152344 274.40625 238.234375 C 263.640625 240.617188 252.019531 242.53125 239.773438 243.957031 C 247.6875 231.800781 255.109375 219.34375 261.9375 206.585938 Z M 219.621094 245.820312 C 197.136719 247.375 174.507812 247.359375 152.011719 245.945312 C 139.230469 227.851562 127.851562 208.820312 118.027344 189.0625 C 127.804688 169.347656 139.101562 150.355469 151.820312 132.289062 C 174.332031 130.640625 196.984375 130.632812 219.492188 132.296875 C 232.105469 150.363281 243.386719 169.308594 253.386719 188.84375 C 243.503906 208.550781 232.148438 227.582031 219.621094 245.820312 Z M 270.148438 46.328125 C 293.292969 59.265625 282.992188 105.21875 277.9375 125.199219 C 262.535156 121.753906 245.808594 119.191406 228.296875 117.597656 C 218.097656 103.519531 207.527344 90.71875 196.914062 79.640625 C 212.472656 65.105469 247.230469 33.519531 270.148438 46.328125 Z M 270.148438 46.328125 " fill-opacity="1" fill-rule="evenodd"/></g><path fill="#53c1de" d="M 220.984375 188.90625 C 220.984375 170.972656 205.996094 156.429688 187.5 156.429688 C 169.007812 156.429688 154.015625 170.972656 154.015625 188.90625 C 154.015625 206.84375 169.007812 221.382812 187.5 221.382812 C 205.996094 221.382812 220.984375 206.84375 220.984375 188.90625 Z M 220.984375 188.90625 " fill-opacity="1" fill-rule="nonzero"/><path fill="#53c1de" d="M 296.253906 128.613281 C 303.328125 100.742188 312.214844 49.0625 280.878906 31.542969 C 249.691406 14.097656 209.105469 47.523438 187.671875 67.589844 C 166.304688 47.722656 124.578125 14.441406 93.269531 32.015625 C 62.09375 49.519531 71.707031 100.34375 78.9375 128.386719 C 49.855469 136.398438 0 153.652344 0 188.90625 C 0 224.058594 49.800781 242.832031 78.710938 250.835938 C 71.457031 279.035156 62.324219 329.132812 93.539062 346.59375 C 124.964844 364.167969 166.5625 331.675781 188.191406 311.390625 C 209.761719 331.574219 249.957031 364.28125 281.152344 346.765625 C 312.445312 329.199219 304.296875 278.210938 297.066406 250.003906 C 325.089844 241.984375 375 223.621094 375 188.90625 C 375 153.992188 324.878906 136.597656 296.253906 128.613281 Z M 292.703125 235.058594 C 287.957031 220.484375 281.550781 204.988281 273.714844 188.984375 C 281.195312 173.355469 287.351562 158.058594 291.964844 143.582031 C 312.949219 149.480469 358.980469 162.964844 358.980469 188.90625 C 358.980469 215.089844 314.808594 228.703125 292.703125 235.058594 Z M 273.125 333.320312 C 249.851562 346.386719 215.277344 315.109375 199.347656 300.25 C 209.914062 289.039062 220.476562 276.007812 230.78125 261.539062 C 248.910156 259.980469 266.039062 257.429688 281.570312 253.945312 C 286.65625 273.898438 296.503906 320.195312 273.125 333.320312 Z M 101.546875 333.132812 C 78.269531 320.117188 88.90625 275.414062 94.246094 254.640625 C 109.605469 257.9375 126.609375 260.308594 144.78125 261.738281 C 155.152344 275.894531 166.019531 288.910156 176.96875 300.308594 C 163.441406 313 124.929688 346.210938 101.546875 333.132812 Z M 16.019531 188.90625 C 16.019531 162.625 61.777344 149.238281 83.238281 143.351562 C 87.929688 158.15625 94.085938 173.632812 101.515625 189.285156 C 93.992188 205.167969 87.746094 220.890625 83.011719 235.871094 C 62.546875 230.1875 16.019531 215.203125 16.019531 188.90625 Z M 101.296875 45.464844 C 124.667969 32.34375 160.933594 64.296875 176.449219 78.679688 C 165.554688 90.023438 154.789062 102.941406 144.503906 117.019531 C 126.867188 118.605469 109.984375 121.148438 94.464844 124.5625 C 88.640625 101.941406 77.949219 58.570312 101.296875 45.464844 Z M 242.242188 133.90625 C 254.207031 135.371094 265.671875 137.316406 276.433594 139.703125 C 273.203125 149.746094 269.175781 160.25 264.429688 171.019531 C 257.554688 158.363281 250.171875 145.964844 242.242188 133.90625 Z M 187.679688 89.78125 C 195.066406 97.542969 202.46875 106.214844 209.746094 115.617188 C 194.980469 114.941406 180.191406 114.9375 165.425781 115.609375 C 172.710938 106.289062 180.175781 97.636719 187.679688 89.78125 Z M 110.707031 171.007812 C 106.042969 160.277344 102.050781 149.726562 98.789062 139.539062 C 109.488281 137.214844 120.898438 135.316406 132.789062 133.878906 C 124.832031 145.910156 117.464844 158.304688 110.707031 171.007812 Z M 133.128906 245.042969 C 120.847656 243.714844 109.265625 241.914062 98.570312 239.65625 C 101.878906 229.285156 105.960938 218.507812 110.722656 207.546875 C 117.574219 220.382812 125.054688 232.894531 133.128906 245.042969 Z M 188.121094 289.128906 C 180.53125 281.183594 172.957031 272.394531 165.558594 262.941406 C 180.410156 263.503906 195.289062 263.507812 210.136719 262.863281 C 202.835938 272.488281 195.460938 281.289062 188.121094 289.128906 Z M 264.582031 206.988281 C 269.597656 218.070312 273.820312 228.789062 277.175781 238.980469 C 266.304688 241.386719 254.566406 243.328125 242.195312 244.765625 C 250.1875 232.476562 257.6875 219.886719 264.582031 206.988281 Z M 221.839844 246.648438 C 199.125 248.222656 176.269531 248.207031 153.546875 246.777344 C 140.636719 228.488281 129.140625 209.25 119.222656 189.28125 C 129.09375 169.351562 140.503906 150.152344 153.355469 131.890625 C 176.09375 130.222656 198.972656 130.21875 221.710938 131.898438 C 234.453125 150.160156 245.84375 169.308594 255.945312 189.058594 C 245.964844 208.976562 234.492188 228.214844 221.839844 246.648438 Z M 272.878906 45 C 296.257812 58.078125 285.851562 104.523438 280.742188 124.722656 C 265.1875 121.238281 248.292969 118.648438 230.605469 117.039062 C 220.296875 102.808594 209.621094 89.871094 198.90625 78.671875 C 214.617188 63.980469 249.726562 32.050781 272.878906 45 Z M 272.878906 45 " fill-opacity="1" fill-rule="evenodd"/></svg>